<svg width="105" height="32" viewBox="0 0 105 32" fill="none" xmlns="http://www.w3.org/2000/svg">
<path d="M8.61555 0.695048C7.27357 1.58303 6.19133 2.86087 5.41211 4.52855L4.76277 5.87136L3.3775 5.74141L1.99223 5.5898L1.77578 6.43447C0.585313 11.091 1.03985 14.1881 3.26927 16.3756C4.3948 17.4802 4.45974 17.7834 3.5723 17.7834C2.92296 17.7834 1.58098 18.4548 1.0615 19.0179C0.34722 19.7976 -0.020742 21.0538 0.000902798 22.7431C0.000902798 24.714 0.4338 26.4467 1.42946 28.5475C2.49006 30.735 3.00954 31.1032 5.47705 31.4064C8.68048 31.7962 12.6198 32.0995 12.7714 31.9695C13.0094 31.7096 12.5333 28.8074 12.0138 27.4429C11.9489 27.2913 12.3385 27.5729 12.8796 28.071C14.0917 29.2406 15.3254 29.5221 16.8189 28.9374C18.5505 28.2876 19.6328 26.0785 19.1133 24.3025C18.5722 22.5265 17.2085 21.4653 15.477 21.4653C13.3558 21.4653 11.7108 23.1763 11.7108 25.3854V26.3384L10.78 24.6057C10.2606 23.6528 9.07009 21.8768 8.11772 20.6639C6.27791 18.3032 5.13073 16.2456 4.65454 14.4697C3.98355 11.979 4.54632 7.45241 5.84501 4.6585C7.01383 2.14615 9.32983 0.240225 10.9532 0.435149C11.0831 0.435149 11.1696 0.803339 11.1696 1.21484C11.1696 1.95122 11.148 1.97288 10.3038 1.97288C9.28654 1.97288 8.46403 2.16781 8.46403 2.40605C8.46403 2.51434 9.0268 2.536 9.71943 2.47102C10.3904 2.42771 11.8406 2.44936 12.9012 2.55766L14.8493 2.73092L14.7843 3.74886C14.7194 4.72348 14.741 4.78845 15.2389 4.78845C15.9099 4.78845 16.1047 5.00503 15.78 5.37322C15.6501 5.52483 15.6068 5.74141 15.6934 5.82804C15.78 5.91468 15.9748 5.80639 16.1263 5.5898C16.4943 5.11332 16.6025 5.11332 16.754 5.65478C16.8189 5.89302 17.122 6.17458 17.425 6.30453C18.9834 6.8893 16.8839 9.81315 14.3731 10.5495C13.4423 10.8094 12.6848 10.8744 11.3428 10.7878C10.3471 10.7228 9.54628 10.7445 9.54628 10.8311C9.54628 11.3292 12.7714 11.4375 14.4813 10.9827L15.6068 10.7011L15.477 11.4159C15.1306 13.2352 16.1047 14.513 19.3081 16.4839C20.4769 17.2203 21.5159 17.9133 21.5808 18.0216C21.6457 18.1516 21.6025 18.3681 21.4726 18.5198C21.1046 18.9529 21.5375 19.9492 22.1003 19.9492C22.663 19.9492 22.663 20.3607 22.0786 22.7431C21.3644 25.7103 21.754 27.5079 23.5505 29.5005C24.5678 30.6267 25.5202 31.1032 27.5115 31.493C29.2431 31.8612 31.9487 32.0561 32.1435 31.8396C32.2301 31.7746 32.0353 31.1465 31.7322 30.4534C30.953 28.6991 30.6067 26.7715 30.2171 21.7901C29.7409 15.6176 29.1565 13.7766 26.992 11.6108C24.4812 9.09843 21.386 8.21045 18.0743 9.03346L17.5116 9.18507L17.9661 8.29708C18.8536 6.56442 18.3557 4.52855 16.5592 2.44936C15.6285 1.36645 14.806 0.889972 13.832 0.889972C13.4423 0.889972 12.8363 0.695049 12.4683 0.456809C11.4294 -0.236254 9.8493 -0.127964 8.61555 0.695048ZM13.7021 1.32314C14.0484 1.32314 14.6761 1.47474 15.0657 1.66967C15.9964 2.10283 17.4034 4.07373 17.8795 5.61146C18.0094 6.08794 17.9878 6.1096 17.5765 5.89302C17.3168 5.74141 17.122 5.4382 17.122 5.22161C17.122 4.94006 16.9705 4.78845 16.7107 4.78845C16.4943 4.78845 16.2345 4.63684 16.1696 4.44192C16.083 4.20368 15.8882 4.16036 15.5852 4.24699C15.1523 4.3986 15.1306 4.35529 15.2605 3.59725C15.477 2.49268 15.1523 2.18946 13.7454 2.18946C12.6848 2.18946 12.5766 2.14615 12.5549 1.69133C12.5333 1.34479 12.5116 1.30148 12.425 1.58303C12.3168 2.03786 11.5809 2.10283 11.4294 1.66967C11.3644 1.4964 11.3644 1.14987 11.4294 0.91163L11.5376 0.435149L12.2952 0.889972C12.7064 1.12821 13.3341 1.32314 13.7021 1.32314ZM4.52467 6.41281C4.56796 6.45613 4.45974 7.34412 4.24329 8.40537C3.98355 9.74818 3.89697 10.8961 3.96191 12.3688C4.07013 14.2531 4.22165 14.8595 5.10908 16.9604C5.65021 18.2815 3.03118 15.7692 2.25197 14.2531C1.51604 12.802 1.38617 10.8311 1.86236 8.36205C2.05716 7.3008 2.27361 6.34784 2.33855 6.23955C2.44677 6.04463 4.30823 6.19623 4.52467 6.41281ZM22.1003 9.33667C23.8102 9.66155 25.0873 10.3763 26.5591 11.8274C27.9227 13.1918 28.6587 14.448 29.1565 16.3323C29.4812 17.5885 30.0223 22.9164 29.8275 23.1113C29.7626 23.1763 29.5245 23.133 29.2864 23.003C28.4855 22.5698 27.5981 22.7431 26.4293 23.5228C25.6284 24.0643 25.347 24.1725 25.4552 23.9126C26.7756 20.469 26.2777 17.6318 24.1565 16.5272C23.5505 16.224 21.4509 15.5959 21.4509 15.7042C21.4509 15.7475 21.9271 16.2456 22.5115 16.8304C24.3513 18.693 24.6327 20.7289 23.5938 24.714C23.2908 25.8402 23.2042 26.6849 23.2907 27.4213L23.4206 28.5042L22.9877 27.9627C22.7496 27.6595 22.425 26.9015 22.2951 26.2734C22.057 25.2555 22.0786 24.844 22.5332 22.8731C23.0527 20.4473 23.031 19.2345 22.425 18.3032C22.2302 18 21.083 17.112 19.8709 16.3323C15.8882 13.7766 15.2822 12.8236 16.2345 10.7228C16.5808 9.98642 16.7757 9.81315 17.5765 9.59657C19.3947 9.12009 20.6068 9.05512 22.1003 9.33667ZM23.8102 16.7005C25.3903 17.5018 26.1479 19.0179 25.9098 20.9022C25.8448 21.5086 25.4336 23.068 25.0007 24.3891C24.5894 25.6886 24.1782 27.248 24.1133 27.8328C24.005 28.6341 23.9401 28.8074 23.8102 28.5042C23.5072 27.7028 23.6154 25.4937 24.0483 23.8693C24.8275 20.9888 24.5245 18.7797 23.1609 17.0687C22.425 16.159 22.5981 16.0724 23.8102 16.7005ZM5.47705 18.2382C6.36448 18.6497 7.53331 20.5989 7.70647 21.9201C8.07443 24.8656 6.75409 27.7895 4.17836 29.8037L3.20434 30.5617L2.57664 29.6521C0.693538 26.8582 -0.172256 22.3099 0.801762 20.2741C1.55933 18.6497 4.07013 17.5668 5.47705 18.2382ZM22.3167 19.2128C22.3167 19.3861 22.2302 19.516 22.1003 19.516C21.9921 19.516 21.8838 19.3211 21.8838 19.0612C21.8838 18.823 21.9921 18.693 22.1003 18.758C22.2302 18.823 22.3167 19.0396 22.3167 19.2128ZM9.26489 22.9164C10.845 25.2121 12.3601 29.089 12.3601 30.8866V31.558L11.0181 31.493C9.56792 31.4064 6.0831 31.0599 4.71948 30.8649L3.87533 30.735L5.21731 29.4138C5.95323 28.6991 6.77574 27.7028 7.05712 27.2264C7.70647 26.1001 8.24759 24.0643 8.24759 22.7214C8.24759 22.1583 8.29088 21.6819 8.33417 21.6819C8.37746 21.6819 8.78871 22.245 9.26489 22.9164ZM17.1436 22.3966C17.9445 22.9164 18.8536 24.4974 18.8536 25.3637C18.8536 26.1651 17.9878 27.7462 17.2735 28.2659C16.4077 28.894 14.5679 28.894 13.7237 28.2659C12.1653 27.1181 11.7108 25.3204 12.5766 23.6527C13.4207 21.9634 15.6068 21.357 17.1436 22.3966ZM29.1349 23.2846C29.5028 23.5661 29.4812 23.5878 28.7236 23.956C27.3167 24.6274 25.8448 26.1434 25.0007 27.8111L24.2215 29.3705L24.3513 28.1793C24.6977 25.4071 25.3037 24.3458 27.057 23.4145C27.9877 22.9164 28.5937 22.8731 29.1349 23.2846ZM30.0872 25.4071C30.1089 26.1868 30.0656 26.2301 29.1998 26.4683C27.9444 26.7932 26.7106 27.4429 25.6067 28.3309L24.6977 29.089L24.9574 28.4609C25.715 26.7066 27.1219 25.1472 28.8102 24.1942L29.7842 23.6311L29.9357 24.1292C30.0006 24.3891 30.0656 24.9739 30.0872 25.4071ZM30.5634 28.3309C30.7799 29.1756 31.1045 30.1719 31.2777 30.5401C31.4725 30.8866 31.624 31.2331 31.624 31.3198C31.624 31.7746 27.1219 31.1898 25.5851 30.5184C24.6977 30.1286 24.6544 30.1069 24.9574 29.6304C25.4769 28.8507 27.2085 27.6379 28.5504 27.1614C29.2214 26.9015 29.8708 26.7066 29.979 26.7499C30.0872 26.7715 30.347 27.4863 30.5634 28.3309Z" fill="black"/>
<path d="M14.806 24.1942C14.6545 24.2592 14.5246 24.6057 14.5246 24.9522C14.5246 25.537 14.5679 25.5803 15.412 25.5803C16.2562 25.5803 16.2778 25.5587 16.2129 24.8656C16.1696 24.3025 16.0397 24.1725 15.6068 24.1292C15.3038 24.1076 14.9358 24.1509 14.806 24.1942ZM15.78 24.8656C15.8233 25.0389 15.6718 25.1472 15.412 25.1472C15.1523 25.1472 14.9575 25.0172 14.9575 24.8006C14.9575 24.4108 15.6285 24.4758 15.78 24.8656Z" fill="black"/>
<path d="M14.0917 4.35529C14.0917 4.59353 14.1783 4.78845 14.2865 4.78845C14.3947 4.78845 14.438 4.59353 14.3731 4.35529C14.3082 4.11705 14.2216 3.92212 14.1783 3.92212C14.135 3.92212 14.0917 4.11705 14.0917 4.35529Z" fill="black"/>
<path d="M6.77572 4.94005C6.62421 5.43819 6.16967 6.30452 5.73677 6.86763C5.32552 7.40909 5.02249 7.90722 5.08743 7.9722C5.21729 8.12381 6.49434 6.34783 6.88395 5.48151C7.05711 5.07 7.16533 4.59352 7.12204 4.3986C7.07875 4.18201 6.92724 4.44191 6.77572 4.94005Z" fill="black"/>
<path d="M10.845 5.71976C10.845 6.10961 10.6502 6.80267 10.4121 7.27915C9.91425 8.27543 9.97918 8.51367 10.5203 7.669C10.9099 7.10589 11.2562 5.00504 10.9748 5.00504C10.9099 5.00504 10.845 5.32992 10.845 5.71976Z" fill="black"/>
<path d="M6.86229 8.29708C6.66749 8.68693 6.08308 9.57492 5.52031 10.268C4.95754 10.9394 4.54629 11.5458 4.58958 11.5891C4.7411 11.7624 7.05709 8.70859 7.20861 8.12382C7.40341 7.38744 7.23025 7.47407 6.86229 8.29708Z" fill="black"/>
<path d="M7.72809 9.48829C7.64151 9.87814 7.14368 10.6578 6.64585 11.2209C5.34716 12.6937 5.00084 13.2568 5.02249 13.8849C5.02249 14.3397 5.08742 14.2748 5.34716 13.56C5.52032 13.0836 6.03979 12.3039 6.49433 11.8274C7.46835 10.8311 8.09605 9.68322 7.96618 9.16342C7.92289 8.92518 7.83631 9.05513 7.72809 9.48829Z" fill="black"/>
<path d="M7.94457 10.7444C7.85799 11.0477 7.36016 11.979 6.81904 12.802C6.27792 13.6466 5.86667 14.448 5.90996 14.578C5.97489 14.7296 6.14805 14.5563 6.34285 14.2098C6.51601 13.8416 7.03549 12.9752 7.46839 12.2822C7.90128 11.5675 8.2476 10.8094 8.2476 10.5928C8.2476 10.0297 8.09609 10.1164 7.94457 10.7444Z" fill="black"/>
<path d="M8.37747 12.0223C8.29089 12.4988 7.87964 13.3868 7.49003 14.0149C6.62423 15.3793 6.14805 16.8521 6.49437 17.1986C6.66752 17.3719 6.73246 17.2203 6.73246 16.7005C6.73246 16.224 7.07878 15.3577 7.66319 14.3181L8.57227 12.6937L9.97918 12.6287C11.5376 12.5421 11.8623 12.3688 11.6025 11.7841C11.4294 11.4375 11.4077 11.4375 11.3428 11.8707C11.2562 12.2605 11.0831 12.3472 10.174 12.4122C9.04846 12.4771 8.78872 12.3472 8.6372 11.6108C8.57227 11.3076 8.48569 11.4592 8.37747 12.0223Z" fill="black"/>
<path d="M46.2343 18.1949C45.217 18.6497 44.7408 19.1478 44.3295 20.1658C43.2256 22.8297 43.9616 25.7753 45.9745 26.8149C47.0568 27.3563 48.7667 27.2697 49.8057 26.5766C50.6498 26.0135 50.8879 25.537 50.455 25.2555C50.3468 25.1905 50.2386 25.2121 50.2386 25.3421C50.2386 25.7753 48.7667 26.4467 47.7927 26.4467C45.823 26.4467 44.9356 24.9956 45.0871 22.05C45.1737 20.1441 45.5633 19.4294 46.862 18.7797C47.6628 18.3898 47.7061 18.3898 48.9615 18.8013C50.152 19.1912 50.2386 19.1912 50.2386 18.8446C50.2386 18.6064 49.9139 18.3682 49.2213 18.1299C47.9226 17.6967 47.2949 17.6967 46.2343 18.1949Z" fill="black"/>
<path d="M70.3033 18.0866C68.5501 18.7363 67.7709 20.1225 67.7709 22.5698C67.7709 24.4974 68.3337 25.8402 69.4808 26.5983C70.8661 27.5296 73.9397 27.0964 74.4159 25.9052C74.6323 25.3204 74.3509 25.3204 73.5068 25.9052C71.7319 27.0964 69.5674 26.3817 69.0479 24.4324C68.7233 23.2196 68.8964 20.5556 69.3726 19.8626C70.1951 18.6064 71.9051 18.1949 73.3336 18.9313C73.9397 19.2561 74.0263 19.2561 74.1345 18.9529C74.2211 18.7147 74.0263 18.5198 73.4419 18.2815C72.2947 17.805 71.2557 17.7401 70.3033 18.0866Z" fill="black"/>
<path d="M78.3552 18C76.7535 18.4764 75.7794 19.8842 75.6063 22.0284C75.3898 24.779 76.4721 26.6199 78.55 27.0747C79.2859 27.2263 79.8703 27.2263 80.4114 27.0747C81.4071 26.7932 82.6192 25.7536 82.4028 25.3854C82.2729 25.1905 82.1214 25.2121 81.7534 25.537C81.0391 26.1868 80.4331 26.4467 79.5673 26.4467C77.814 26.4467 76.8833 25.3637 76.7102 23.0896C76.4288 19.7326 78.0521 17.9566 80.6712 18.758C81.9915 19.1478 82.0564 19.1478 82.0564 18.758C82.0564 18.5631 81.6235 18.3248 80.9309 18.1082C79.7188 17.7617 79.221 17.7401 78.3552 18Z" fill="black"/>
<path d="M99.697 18.1949C98.0737 18.9312 97.4243 20.1874 97.4243 22.6131C97.4243 25.8185 99.3724 27.7028 102.056 27.0964C104.026 26.6632 105 25.1471 105 22.5482C104.978 20.1008 104.307 18.8446 102.554 18.1082C101.515 17.6751 100.758 17.6967 99.697 18.1949ZM102.424 18.9312C103.377 19.581 103.766 20.404 103.874 22.0717C104.069 24.8656 103.074 26.4466 101.126 26.4466C99.3507 26.4466 98.5066 25.1905 98.5066 22.5048C98.5066 20.5989 99.0477 19.2994 100.087 18.7796C101.039 18.3248 101.558 18.3465 102.424 18.9312Z" fill="black"/>
<path d="M35.5201 22.5265V27.0964H36.0179C36.4075 27.0747 36.8188 26.49 38.3339 23.8044C41.0828 18.8879 40.9096 18.9313 40.9313 23.3495C40.9313 26.9448 40.9529 27.0964 41.3642 27.0964C41.7754 27.0964 41.7971 26.9448 41.7971 22.5265C41.7971 17.9783 41.7971 17.9783 41.3209 18.0433C40.9746 18.0866 40.3469 18.9962 38.7885 21.7252L36.7105 25.3204L36.6023 21.7252C36.4941 18.1732 36.4941 18.1082 36.0179 18.0433L35.5201 17.9783V22.5265Z" fill="black"/>
<path d="M52.403 22.5265V27.0964H52.9442C53.4853 27.0964 53.4853 27.0747 53.4853 25.4071C53.4853 23.9993 53.5502 23.6311 53.8965 23.3279C54.1346 23.1113 54.3944 22.9813 54.5026 23.0463C54.5892 23.1113 55.3035 24.0426 56.0827 25.1255C57.2731 26.7715 57.5762 27.0964 58.0956 27.0964C58.4203 27.0964 58.68 27.0531 58.68 26.9881C58.68 26.9231 57.9008 25.7753 56.9485 24.4541L55.2385 22.05L56.5589 20.339C57.2948 19.4077 57.9658 18.5847 58.074 18.5198C58.377 18.3248 58.2688 18 57.8792 18C57.6627 18 57.0134 18.6497 56.4073 19.4727C55.8229 20.2524 54.9355 21.3353 54.4593 21.8768L53.5935 22.8297L53.4853 20.469C53.3771 18.2165 53.3554 18.1082 52.9009 18.0433L52.403 17.9783V22.5265Z" fill="black"/>
<path d="M61.4722 21.3787C62.4462 23.2413 63.2255 24.8873 63.2255 25.0389C63.2255 25.1905 63.009 25.5587 62.7709 25.8836C62.3813 26.3817 62.1649 26.4683 61.4289 26.4034C60.4116 26.3384 60.087 26.7716 60.9095 27.0748C61.8185 27.4213 62.9441 26.9881 63.5285 26.0568C64.1778 25.0606 66.7969 18.2599 66.6237 18.0866C66.2557 17.6968 65.8445 18.4115 64.957 20.9022C64.4159 22.3966 63.9397 23.6311 63.8748 23.6311C63.8099 23.6311 63.1172 22.3533 62.3597 20.8155C61.061 18.1949 60.9311 18 60.3467 18H59.719L61.4722 21.3787Z" fill="black"/>
<path d="M82.9223 18.3248C82.9223 18.5414 83.2469 18.6497 84.1777 18.693L85.4114 18.758L85.4764 22.9164C85.5197 26.9231 85.5413 27.0964 85.9525 27.0964C86.3638 27.0964 86.3854 26.9448 86.3854 22.8731V18.6497H87.6841C88.7014 18.6497 88.9828 18.5847 88.9828 18.3248C88.9828 18.0433 88.5066 18 85.9525 18C83.4417 18 82.9223 18.0649 82.9223 18.3248Z" fill="black"/>
<path d="M90.498 22.5482V27.0964H91.9698C94.827 27.0964 95.9092 26.3817 95.9092 24.4974C95.9092 23.5878 95.8226 23.3712 95.2382 22.8947L94.5889 22.3316L95.0218 21.7685C95.5196 21.1404 95.6278 19.7759 95.2382 19.0396C94.8919 18.3898 93.7014 18 92.0131 18H90.498V22.5482ZM94.1127 19.2128C94.5672 19.6676 94.6321 19.9059 94.5239 20.5556C94.3724 21.6169 93.7231 22.115 92.5326 22.115H91.5802V20.3824V18.6497H92.5542C93.3335 18.6497 93.6798 18.7797 94.1127 19.2128ZM94.5239 23.2196C94.7837 23.5011 94.9352 23.9776 94.9352 24.5407C94.9352 25.7753 94.1127 26.4467 92.6408 26.4467H91.5802V24.6057V22.7648H92.8356C93.8529 22.7648 94.1993 22.8514 94.5239 23.2196Z" fill="black"/>
</svg>
