<svg width="92" height="28" viewBox="0 0 92 28" fill="none" xmlns="http://www.w3.org/2000/svg">
<path d="M7.54886 0.608172C6.37303 1.38516 5.42478 2.50327 4.74204 3.96249L4.17309 5.13745L2.95933 5.02374L1.74557 4.89108L1.55592 5.63017C0.512846 9.70462 0.911111 12.4146 2.86451 14.3286C3.85069 15.2951 3.90758 15.5605 3.13002 15.5605C2.56107 15.5605 1.38524 16.1479 0.930076 16.6407C0.304231 17.3229 -0.018174 18.422 0.000791023 19.9002C0.000791023 21.6248 0.380091 23.1408 1.25248 24.9791C2.18177 26.8931 2.63693 27.2153 4.79894 27.4806C7.60576 27.8217 11.0574 28.087 11.1901 27.9733C11.3988 27.7459 10.9815 25.2065 10.5264 24.0126C10.4695 23.8799 10.8108 24.1263 11.285 24.5622C12.347 25.5855 13.428 25.8319 14.7366 25.3202C16.2538 24.7517 17.202 22.8187 16.7469 21.2647C16.2728 19.7107 15.078 18.7821 13.5608 18.7821C11.7022 18.7821 10.2609 20.2792 10.2609 22.2122V23.0461L9.44536 21.53C8.9902 20.6962 7.94713 19.1422 7.11267 18.0809C5.50064 16.0153 4.4955 14.2149 4.07827 12.661C3.49035 10.4816 3.98344 6.52086 5.12134 4.07619C6.14545 1.87788 8.17471 0.210202 9.59708 0.38076C9.71087 0.38076 9.78673 0.702926 9.78673 1.06299C9.78673 1.70733 9.76777 1.72628 9.02813 1.72628C8.13678 1.72628 7.41611 1.89684 7.41611 2.1053C7.41611 2.20005 7.9092 2.219 8.51608 2.16215C9.10399 2.12425 10.3746 2.1432 11.3039 2.23795L13.0108 2.38956L12.9539 3.28025C12.897 4.13305 12.916 4.1899 13.3521 4.1899C13.9401 4.1899 14.1108 4.37941 13.8263 4.70157C13.7125 4.83423 13.6746 5.02374 13.7504 5.09954C13.8263 5.17535 13.997 5.08059 14.1297 4.89108C14.4521 4.47416 14.5469 4.47416 14.6797 4.94794C14.7366 5.1564 15.0021 5.40276 15.2676 5.51646C16.6331 6.02814 14.7935 8.58651 12.5935 9.23085C11.7781 9.45826 11.1143 9.51511 9.93845 9.43931C9.06606 9.38245 8.36436 9.40141 8.36436 9.47721C8.36436 9.91308 11.1901 10.0078 12.6884 9.60987L13.6746 9.3635L13.5608 9.98888C13.2573 11.5808 14.1107 12.6989 16.9176 14.4234C17.9417 15.0677 18.852 15.6742 18.9089 15.7689C18.9658 15.8826 18.9279 16.0721 18.8141 16.2048C18.4917 16.5838 18.871 17.4556 19.3641 17.4556C19.8571 17.4556 19.8571 17.8156 19.3451 19.9002C18.7192 22.4965 19.0606 24.0694 20.6347 25.8129C21.5261 26.7984 22.3605 27.2153 24.1053 27.5564C25.6225 27.8786 27.9931 28.0491 28.1638 27.8596C28.2397 27.8028 28.069 27.2532 27.8035 26.6468C27.1207 25.1117 26.8173 23.4251 26.4759 19.0664C26.0587 13.6654 25.5466 12.0545 23.6501 10.1594C21.4502 7.96113 18.7382 7.18415 15.8366 7.90428L15.3435 8.03694L15.7417 7.25995C16.5193 5.74387 16.0831 3.96249 14.509 2.1432C13.6935 1.19565 12.9729 0.77873 12.1194 0.77873C11.7781 0.77873 11.247 0.608173 10.9246 0.399713C10.0143 -0.206717 8.62987 -0.111963 7.54886 0.608172ZM12.0056 1.15775C12.3091 1.15775 12.8591 1.29041 13.2004 1.46096C14.0159 1.83998 15.2487 3.56452 15.6659 4.91003C15.7797 5.32695 15.7607 5.3459 15.4004 5.1564C15.1728 5.02374 15.0021 4.75843 15.0021 4.56892C15.0021 4.32255 14.8693 4.1899 14.6418 4.1899C14.4521 4.1899 14.2245 4.05724 14.1676 3.88668C14.0918 3.67822 13.9211 3.64032 13.6556 3.71613C13.2763 3.84878 13.2573 3.81088 13.3711 3.1476C13.5608 2.1811 13.2763 1.91579 12.0436 1.91579C11.1143 1.91579 11.0195 1.87788 11.0005 1.47991C10.9815 1.1767 10.9626 1.1388 10.8867 1.38516C10.7919 1.78313 10.1471 1.83998 10.0143 1.46096C9.95742 1.30936 9.95742 1.00614 10.0143 0.797681L10.1091 0.38076L10.7729 0.77873C11.1332 0.98719 11.6832 1.15775 12.0056 1.15775ZM3.96448 5.61122C4.00241 5.64912 3.90758 6.42611 3.71793 7.3547C3.49035 8.52966 3.41449 9.53406 3.47139 10.8227C3.56621 12.4715 3.69897 13.0021 4.47653 14.8403C4.95066 15.9963 2.65589 13.798 1.97315 12.4715C1.32834 11.2017 1.21455 9.47721 1.63178 7.3168C1.80247 6.38821 1.99212 5.55436 2.04901 5.45961C2.14384 5.28905 3.77483 5.42171 3.96448 5.61122ZM19.3641 8.16959C20.8623 8.45386 21.9812 9.07924 23.2708 10.349C24.4656 11.5429 25.1105 12.642 25.5466 14.2907C25.8311 15.3899 26.3052 20.0518 26.1346 20.2224C26.0777 20.2792 25.8691 20.2413 25.6604 20.1276C24.9587 19.7486 24.1812 19.9002 23.1571 20.5825C22.4554 21.0562 22.2088 21.151 22.3036 20.9236C23.4605 17.9104 23.0243 15.4278 21.1657 14.4613C20.6347 14.196 18.7951 13.6464 18.7951 13.7412C18.7951 13.7791 19.2123 14.2149 19.7244 14.7266C21.3364 16.3564 21.583 18.1378 20.6726 21.6248C20.4071 22.6102 20.3313 23.3493 20.4071 23.9936L20.5209 24.9412L20.1416 24.4674C19.933 24.2021 19.6485 23.5388 19.5347 22.9892C19.3261 22.0985 19.3451 21.7385 19.7434 20.0139C20.1985 17.8914 20.1795 16.8302 19.6485 16.0153C19.4778 15.75 18.4727 14.973 17.4107 14.2907C13.9211 12.0545 13.3901 11.2207 14.2245 9.38245C14.528 8.73812 14.6987 8.58651 15.4004 8.39701C16.9934 7.98008 18.0555 7.92323 19.3641 8.16959ZM20.8623 14.6129C22.2467 15.3141 22.9105 16.6407 22.7019 18.2894C22.645 18.82 22.2847 20.1845 21.9054 21.3405C21.545 22.4775 21.1847 23.842 21.1278 24.3537C21.033 25.0549 20.9761 25.2065 20.8623 24.9412C20.5968 24.24 20.6916 22.307 21.0709 20.8857C21.7536 18.3652 21.4881 16.4322 20.2933 14.9351C19.6485 14.1391 19.8003 14.0633 20.8623 14.6129ZM4.79894 15.9584C5.5765 16.3185 6.60061 18.0241 6.75233 19.1801C7.07474 21.7574 5.91787 24.3158 3.66104 26.0782L2.80761 26.7415L2.25763 25.9456C0.607671 23.5009 -0.150929 19.5212 0.702496 17.7398C1.36627 16.3185 3.56621 15.3709 4.79894 15.9584ZM19.5537 16.8112C19.5537 16.9628 19.4778 17.0765 19.3641 17.0765C19.2692 17.0765 19.1744 16.906 19.1744 16.6786C19.1744 16.4701 19.2692 16.3564 19.3641 16.4132C19.4778 16.4701 19.5537 16.6596 19.5537 16.8112ZM8.11781 20.0518C9.50226 22.0606 10.8298 25.4528 10.8298 27.0258V27.6133L9.65398 27.5564C8.38332 27.4806 5.32996 27.1774 4.13516 27.0068L3.39553 26.8931L4.57136 25.7371C5.21617 25.1117 5.93684 24.24 6.18338 23.8231C6.75233 22.8376 7.22646 21.0562 7.22646 19.8813C7.22646 19.3885 7.26439 18.9716 7.30232 18.9716C7.34025 18.9716 7.70058 19.4643 8.11781 20.0518ZM15.0211 19.597C15.7228 20.0518 16.5193 21.4352 16.5193 22.1933C16.5193 22.8945 15.7607 24.2779 15.1349 24.7327C14.3763 25.2823 12.7642 25.2823 12.0246 24.7327C10.6591 23.7283 10.2609 22.1554 11.0195 20.6962C11.7591 19.218 13.6746 18.6874 15.0211 19.597ZM25.5277 20.374C25.8501 20.6204 25.8311 20.6393 25.1673 20.9615C23.9346 21.549 22.645 22.8755 21.9054 24.3347L21.2226 25.6992L21.3364 24.6569C21.6399 22.2312 22.1709 21.3026 23.707 20.4877C24.5225 20.0518 25.0536 20.0139 25.5277 20.374ZM26.3621 22.2312C26.3811 22.9134 26.3432 22.9513 25.5846 23.1598C24.4846 23.444 23.4036 24.0126 22.4364 24.7896L21.6399 25.4528L21.8674 24.9033C22.5312 23.3682 23.7639 22.0038 25.2432 21.1699L26.0966 20.6772L26.2294 21.1131C26.2863 21.3405 26.3432 21.8522 26.3621 22.2312ZM26.7794 24.7896C26.969 25.5286 27.2535 26.4004 27.4052 26.7226C27.5759 27.0258 27.7087 27.329 27.7087 27.4048C27.7087 27.8028 23.7639 27.2911 22.4174 26.7036C21.6399 26.3625 21.6019 26.3435 21.8674 25.9266C22.3226 25.2444 23.8398 24.1831 25.0156 23.7662C25.6035 23.5388 26.1725 23.3682 26.2673 23.4061C26.3621 23.4251 26.5897 24.0505 26.7794 24.7896Z" fill="black"/>
<path d="M12.9729 21.1699C12.8401 21.2268 12.7263 21.53 12.7263 21.8332C12.7263 22.3449 12.7642 22.3828 13.5039 22.3828C14.2435 22.3828 14.2625 22.3638 14.2056 21.7574C14.1677 21.2647 14.0539 21.151 13.6746 21.1131C13.4091 21.0941 13.0867 21.132 12.9729 21.1699ZM13.8263 21.7574C13.8642 21.909 13.7315 22.0038 13.5039 22.0038C13.2763 22.0038 13.1056 21.8901 13.1056 21.7005C13.1056 21.3594 13.6935 21.4163 13.8263 21.7574Z" fill="black"/>
<path d="M12.347 3.81089C12.347 4.01935 12.4229 4.18991 12.5177 4.18991C12.6125 4.18991 12.6505 4.01935 12.5936 3.81089C12.5367 3.60243 12.4608 3.43187 12.4229 3.43187C12.3849 3.43187 12.347 3.60243 12.347 3.81089Z" fill="black"/>
<path d="M5.93682 4.32256C5.80407 4.75843 5.4058 5.51647 5.0265 6.00919C4.66617 6.48297 4.40066 6.91884 4.45755 6.97569C4.57134 7.10835 5.69028 5.55437 6.03165 4.79633C6.18337 4.43627 6.27819 4.01934 6.24026 3.84879C6.20233 3.65928 6.06958 3.88669 5.93682 4.32256Z" fill="black"/>
<path d="M9.50225 5.00479C9.50225 5.34591 9.33157 5.95234 9.12295 6.36926C8.68676 7.241 8.74365 7.44946 9.21778 6.71038C9.55915 6.21765 9.86259 4.37941 9.61604 4.37941C9.55915 4.37941 9.50225 4.66368 9.50225 5.00479Z" fill="black"/>
<path d="M6.01268 7.25995C5.84199 7.60107 5.32994 8.37806 4.83685 8.98449C4.34376 9.57197 3.98342 10.1026 4.02135 10.1405C4.15411 10.2921 6.18336 7.62002 6.31612 7.10834C6.4868 6.46401 6.33508 6.53982 6.01268 7.25995Z" fill="black"/>
<path d="M6.77129 8.30225C6.69543 8.64337 6.25924 9.3256 5.82304 9.81833C4.68514 11.107 4.3817 11.5997 4.40067 12.1493C4.40067 12.5473 4.45756 12.4904 4.68514 11.865C4.83686 11.4481 5.29202 10.7659 5.69029 10.349C6.54371 9.47721 7.0937 8.47281 6.97991 8.01799C6.94198 7.80953 6.86612 7.92323 6.77129 8.30225Z" fill="black"/>
<path d="M6.96096 9.4014C6.8851 9.66671 6.4489 10.4816 5.97478 11.2017C5.50065 11.9408 5.14032 12.642 5.17825 12.7557C5.23514 12.8884 5.38686 12.7368 5.55755 12.4335C5.70927 12.1114 6.16443 11.3533 6.54373 10.7469C6.92303 10.1215 7.22647 9.45825 7.22647 9.26874C7.22647 8.77602 7.09371 8.85182 6.96096 9.4014Z" fill="black"/>
<path d="M7.34026 10.5195C7.2644 10.9364 6.90406 11.7134 6.56269 12.263C5.80409 13.4569 5.38686 14.7456 5.6903 15.0488C5.84202 15.2004 5.89892 15.0677 5.89892 14.6129C5.89892 14.196 6.20236 13.438 6.71441 12.5283L7.51094 11.107L8.74367 11.0501C10.1091 10.9743 10.3936 10.8227 10.166 10.3111C10.0143 10.0078 9.99536 10.0078 9.93846 10.3869C9.8626 10.728 9.71088 10.8038 8.91435 10.8606C7.92817 10.9175 7.70059 10.8038 7.56784 10.1595C7.51094 9.89414 7.43508 10.0268 7.34026 10.5195Z" fill="black"/>
<path d="M40.51 15.9205C39.6187 16.3185 39.2014 16.7544 38.8411 17.6451C37.8739 19.976 38.5187 22.5533 40.2825 23.463C41.2307 23.9368 42.7289 23.861 43.6393 23.2545C44.3789 22.7618 44.5875 22.3449 44.2082 22.0985C44.1134 22.0417 44.0186 22.0606 44.0186 22.1743C44.0186 22.5533 42.7289 23.1408 41.8755 23.1408C40.1497 23.1408 39.3721 21.8711 39.5049 19.2938C39.5807 17.6261 39.9221 17.0007 41.06 16.4322C41.7617 16.0911 41.7997 16.0911 42.8996 16.4511C43.9427 16.7923 44.0186 16.7923 44.0186 16.489C44.0186 16.2806 43.7341 16.0721 43.1272 15.8637C41.9893 15.4846 41.4393 15.4846 40.51 15.9205Z" fill="black"/>
<path d="M61.5991 15.8258C60.063 16.3943 59.3802 17.6072 59.3802 19.7486C59.3802 21.4352 59.8733 22.6102 60.8785 23.2735C62.0922 24.0884 64.7852 23.7094 65.2025 22.6671C65.3921 22.1554 65.1456 22.1554 64.4059 22.6671C62.8508 23.7094 60.9543 23.084 60.4992 21.3784C60.2147 20.3171 60.3664 17.9862 60.7836 17.3798C61.5043 16.2806 63.0025 15.9205 64.2542 16.5649C64.7852 16.8491 64.8611 16.8491 64.9559 16.5838C65.0318 16.3754 64.8611 16.2048 64.349 15.9963C63.3439 15.5794 62.4336 15.5226 61.5991 15.8258Z" fill="black"/>
<path d="M68.6541 15.75C67.2507 16.1669 66.3972 17.3987 66.2455 19.2748C66.0559 21.6816 67.0041 23.2924 68.8248 23.6904C69.4696 23.8231 69.9816 23.8231 70.4557 23.6904C71.3281 23.444 72.3902 22.5344 72.2005 22.2122C72.0867 22.0417 71.954 22.0606 71.6316 22.3449C71.0057 22.9134 70.4747 23.1408 69.7161 23.1408C68.1799 23.1408 67.3644 22.1933 67.2127 20.2034C66.9662 17.266 68.3886 15.7121 70.6833 16.4132C71.8402 16.7544 71.8971 16.7544 71.8971 16.4132C71.8971 16.2427 71.5178 16.0342 70.9109 15.8447C69.8489 15.5415 69.4127 15.5225 68.6541 15.75Z" fill="black"/>
<path d="M87.3536 15.9205C85.9312 16.5648 85.3622 17.664 85.3622 19.7865C85.3622 22.5912 87.0691 24.24 89.4208 23.7093C91.1466 23.3303 92 22.0038 92 19.7296C91.981 17.5882 91.3931 16.489 89.8569 15.8447C88.9466 15.4657 88.2829 15.4846 87.3536 15.9205ZM89.7432 16.5648C90.5776 17.1334 90.919 17.8535 91.0138 19.3127C91.1845 21.7574 90.3121 23.1408 88.6053 23.1408C87.0501 23.1408 86.3105 22.0417 86.3105 19.6917C86.3105 18.0241 86.7846 16.887 87.6949 16.4322C88.5294 16.0342 88.9846 16.0532 89.7432 16.5648Z" fill="black"/>
<path d="M31.1223 19.7107V23.7094H31.5585C31.8999 23.6904 32.2602 23.1787 33.5878 20.8288C35.9963 16.5269 35.8446 16.5649 35.8636 20.4308C35.8636 23.5767 35.8826 23.7094 36.2429 23.7094C36.6032 23.7094 36.6222 23.5767 36.6222 19.7107C36.6222 15.731 36.6222 15.731 36.205 15.7879C35.9015 15.8258 35.3515 16.6217 33.9861 19.0095L32.1654 22.1554L32.0706 19.0095C31.9758 15.9016 31.9758 15.8447 31.5585 15.7879L31.1223 15.731V19.7107Z" fill="black"/>
<path d="M45.915 19.7107V23.7094H46.3892C46.8633 23.7094 46.8633 23.6904 46.8633 22.2312C46.8633 20.9994 46.9202 20.6772 47.2236 20.4119C47.4322 20.2224 47.6598 20.1087 47.7546 20.1655C47.8305 20.2224 48.4563 21.0373 49.1391 21.9848C50.1822 23.4251 50.4477 23.7094 50.9028 23.7094C51.1873 23.7094 51.4149 23.6714 51.4149 23.6146C51.4149 23.5577 50.7321 22.5533 49.8977 21.3973L48.3995 19.2938L49.5563 17.7967C50.2011 16.9818 50.789 16.2616 50.8839 16.2048C51.1494 16.0342 51.0546 15.75 50.7132 15.75C50.5235 15.75 49.9546 16.3185 49.4236 17.0386C48.9115 17.7209 48.1339 18.6684 47.7167 19.1422L46.9581 19.976L46.8633 17.9104C46.7685 15.9395 46.7495 15.8447 46.3512 15.7879L45.915 15.731V19.7107Z" fill="black"/>
<path d="M53.8614 18.7063C54.7148 20.3361 55.3976 21.7764 55.3976 21.909C55.3976 22.0417 55.2079 22.3639 54.9993 22.6481C54.6579 23.084 54.4683 23.1598 53.8235 23.1029C52.9321 23.0461 52.6476 23.4251 53.3683 23.6904C54.1648 23.9936 55.151 23.6146 55.6631 22.7997C56.232 21.928 58.5268 15.9774 58.3751 15.8258C58.0527 15.4847 57.6923 16.11 56.9148 18.2894C56.4406 19.597 56.0234 20.6772 55.9665 20.6772C55.9096 20.6772 55.3027 19.5591 54.639 18.2136C53.5011 15.9205 53.3873 15.75 52.8752 15.75H52.3252L53.8614 18.7063Z" fill="black"/>
<path d="M72.6557 16.0342C72.6557 16.2237 72.9402 16.3185 73.7557 16.3564L74.8367 16.4132L74.8936 20.0518C74.9315 23.5577 74.9505 23.7094 75.3108 23.7094C75.6711 23.7094 75.6901 23.5767 75.6901 20.0139V16.3185H76.828C77.7194 16.3185 77.9659 16.2616 77.9659 16.0342C77.9659 15.7879 77.5487 15.75 75.3108 15.75C73.1109 15.75 72.6557 15.8068 72.6557 16.0342Z" fill="black"/>
<path d="M79.2935 19.7297V23.7094H80.5831C83.0865 23.7094 84.0347 23.084 84.0347 21.4352C84.0347 20.6393 83.9588 20.4498 83.4468 20.0329L82.8778 19.5401L83.2571 19.0474C83.6933 18.4978 83.7882 17.3039 83.4468 16.6596C83.1434 16.0911 82.1003 15.75 80.621 15.75H79.2935V19.7297ZM82.4606 16.8112C82.8589 17.2092 82.9158 17.4176 82.8209 17.9862C82.6882 18.9148 82.1192 19.3506 81.0762 19.3506H80.2417V17.8346V16.3185H81.0951C81.7779 16.3185 82.0813 16.4322 82.4606 16.8112ZM82.8209 20.3171C83.0485 20.5635 83.1813 20.9804 83.1813 21.4731C83.1813 22.5533 82.4606 23.1408 81.171 23.1408H80.2417V21.53V19.9192H81.3417C82.233 19.9192 82.5365 19.995 82.8209 20.3171Z" fill="black"/>
</svg>
