<svg width="36" height="36" viewBox="0 0 36 36" fill="none" xmlns="http://www.w3.org/2000/svg">
<path d="M11.775 6.375C6.375 10.05 4.5 17.4 7.5 23.25C9.6 27.45 12.9 29.475 18.075 29.85C21.75 30.15 22.95 29.85 25.725 28.275C28.725 26.475 32.325 21.6 31.35 20.625C31.125 20.4 30.075 20.55 28.95 21C21.45 23.85 14.1 18.075 15.375 10.425C15.675 8.85 16.2 7.35 16.575 7.05C17.775 6.375 17.325 4.5 15.9 4.5C15.225 4.5 13.35 5.325 11.775 6.375ZM13.65 11.4C13.425 14.55 13.725 15.9 15.15 17.925C17.475 21.45 21.225 23.475 25.2 23.475H28.5L26.85 25.275C19.5 33.15 5.325 24.975 8.175 14.475C8.85 12.075 12.3 7.5 13.425 7.5C13.65 7.5 13.8 9.3 13.65 11.4Z" fill="black"/>
</svg>
