<svg width="32" height="32" viewBox="0 0 32 32" fill="none" xmlns="http://www.w3.org/2000/svg">
<path d="M15.68 6.56C15.68 7.36 15.84 8 16 8C16.192 8 16.32 7.36 16.32 6.56C16.32 5.76 16.192 5.12 16 5.12C15.84 5.12 15.68 5.76 15.68 6.56Z" fill="black"/>
<path d="M8.32001 8.576C8.32001 9.024 10.112 10.592 10.336 10.336C10.464 10.24 10.176 9.728 9.69601 9.216C8.83201 8.32 8.32001 8.096 8.32001 8.576Z" fill="black"/>
<path d="M22.24 9.28C21.728 9.792 21.44 10.336 21.536 10.464C21.792 10.688 23.68 9.024 23.68 8.576C23.68 8.064 23.136 8.32 22.24 9.28Z" fill="black"/>
<path d="M14.016 9.088C12.32 9.696 11.36 10.368 10.464 11.584C6.912 16.32 10.272 23.04 16.16 23.04C20.896 23.04 24.32 18.496 23.04 13.952C21.984 10.176 17.504 7.776 14.016 9.088ZM18.016 9.632C20.544 10.336 22.688 13.184 22.72 15.872C22.72 17.728 21.344 20.32 19.744 21.376C18.624 22.112 18.112 22.24 16.128 22.24C14.08 22.24 13.664 22.144 12.448 21.28C9.088 18.912 8.704 14.08 11.648 11.232C13.408 9.504 15.616 8.96 18.016 9.632Z" fill="black"/>
<path d="M14.304 10.688C12.704 11.264 11.872 12.032 11.168 13.6C10.464 15.136 10.4 16.608 11.008 18.016C11.808 19.872 14.016 21.472 15.776 21.408C16.16 21.408 15.776 21.216 14.944 20.992C11.488 20.064 9.98399 16.768 11.552 13.568C12.672 11.232 15.2 10.24 18.08 10.976C18.752 11.136 18.88 11.104 18.528 10.912C17.6 10.336 15.552 10.24 14.304 10.688Z" fill="black"/>
<path d="M19.2 11.52C19.2 11.68 19.36 11.84 19.552 11.84C19.712 11.84 19.776 11.68 19.68 11.52C19.584 11.328 19.424 11.2 19.328 11.2C19.264 11.2 19.2 11.328 19.2 11.52Z" fill="black"/>
<path d="M18.24 20.8C17.952 20.992 17.92 21.12 18.144 21.12C18.336 21.12 18.624 20.96 18.72 20.8C18.976 20.416 18.848 20.416 18.24 20.8Z" fill="black"/>
<path d="M5.12 16C5.12 16.16 5.76 16.32 6.56 16.32C7.36 16.32 8 16.16 8 16C8 15.808 7.36 15.68 6.56 15.68C5.76 15.68 5.12 15.808 5.12 16Z" fill="black"/>
<path d="M24 16C24 16.16 24.64 16.32 25.44 16.32C26.24 16.32 26.88 16.16 26.88 16C26.88 15.808 26.24 15.68 25.44 15.68C24.64 15.68 24 15.808 24 16Z" fill="black"/>
<path d="M9.12 22.4C8.608 22.912 8.32 23.456 8.416 23.584C8.672 23.808 10.56 22.144 10.56 21.696C10.56 21.184 10.016 21.44 9.12 22.4Z" fill="black"/>
<path d="M21.44 21.696C21.44 22.144 23.328 23.808 23.584 23.584C23.68 23.456 23.392 22.912 22.88 22.4C21.984 21.44 21.44 21.184 21.44 21.696Z" fill="black"/>
<path d="M15.68 25.12C15.68 25.92 15.84 26.56 16 26.56C16.192 26.56 16.32 25.92 16.32 25.12C16.32 24.32 16.192 23.68 16 23.68C15.84 23.68 15.68 24.32 15.68 25.12Z" fill="black"/>
</svg>
